HIERARCHY
ROOT Hips
{
	OFFSET 0.000000 0.000000 0.000000
	CHANNELS 6 Xposition Yposition Zposition Xrotation Yrotation Zrotation
	JOINT LeftUpLeg_virtual
	{
		OFFSET 0.000000 0.000000 0.000000
		CHANNELS 3 Xrotation Yrotation Zrotation
		JOINT LeftUpLeg
		{
			OFFSET 10.205400 -3.823500 0.155100
			CHANNELS 3 Xrotation Yrotation Zrotation
			JOINT LeftLeg
			{
				OFFSET 0.708757 -12.982077 0.567790
				CHANNELS 3 Xrotation Yrotation Zrotation
				JOINT LeftFoot
				{
					OFFSET -0.708756 -10.717838 -2.184338
					CHANNELS 3 Xrotation Yrotation Zrotation
					JOINT LeftToeBase
					{
						OFFSET 0.108149 -7.191104 7.560241
						CHANNELS 3 Xrotation Yrotation Zrotation
						JOINT LeftToe_End
						{
							OFFSET 0.070230 0.081724 4.490308
							CHANNELS 3 Xrotation Yrotation Zrotation
							End Site
							{
								OFFSET 0 0 0
							}
						}
					}
				}
			}
		}
	}
	JOINT RightUpLeg_virtual
	{
		OFFSET 0.000000 0.000000 0.000000
		CHANNELS 3 Xrotation Yrotation Zrotation
		JOINT RightUpLeg
		{
			OFFSET -10.205400 -3.823500 0.005500
			CHANNELS 3 Xrotation Yrotation Zrotation
			JOINT RightLeg
			{
				OFFSET -0.708756 -12.982134 0.610632
				CHANNELS 3 Xrotation Yrotation Zrotation
				JOINT RightFoot
				{
					OFFSET 0.708754 -10.717769 -1.945823
					CHANNELS 3 Xrotation Yrotation Zrotation
					JOINT RightToeBase
					{
						OFFSET -0.108140 -7.191069 7.372968
						CHANNELS 3 Xrotation Yrotation Zrotation
						JOINT RightToe_End
						{
							OFFSET -0.070227 0.081735 4.479403
							CHANNELS 3 Xrotation Yrotation Zrotation
							End Site
							{
								OFFSET 0 0 0
							}
						}
					}
				}
			}
		}
	}
	JOINT Spine_virtual
	{
		OFFSET 0.000000 0.000000 0.000000
		CHANNELS 3 Xrotation Yrotation Zrotation
		JOINT Spine
		{
			OFFSET 0.000000 6.876099 0.125700
			CHANNELS 3 Xrotation Yrotation Zrotation
			JOINT Spine1
			{
				OFFSET 0.000000 5.730043 0.104720
				CHANNELS 3 Xrotation Yrotation Zrotation
				JOINT Spine1_split
				{
					OFFSET 0.000000 5.730043 0.104720
					CHANNELS 3 Xrotation Yrotation Zrotation
					JOINT Spine2
					{
						OFFSET 0.000000 5.730043 0.104720
						CHANNELS 3 Xrotation Yrotation Zrotation
						JOINT Neck_virtual
						{
							OFFSET 0.000000 0.000000 0.000000
							CHANNELS 3 Xrotation Yrotation Zrotation
							JOINT Neck
							{
								OFFSET 0.000000 10.314075 0.188496
								CHANNELS 3 Xrotation Yrotation Zrotation
								JOINT Head
								{
									OFFSET 0.000000 7.643700 -2.377400
									CHANNELS 3 Xrotation Yrotation Zrotation
									JOINT HeadTop_End
									{
										OFFSET 0.000000 43.788605 -13.619600
										CHANNELS 3 Xrotation Yrotation Zrotation
										End Site
										{
											OFFSET 0 0 0
										}
									}
								}
							}
						}
						JOINT LeftShoulder_virtual
						{
							OFFSET 0.000000 0.000000 0.000000
							CHANNELS 3 Xrotation Yrotation Zrotation
							JOINT LeftShoulder
							{
								OFFSET 2.196100 4.412489 0.087492
								CHANNELS 3 Xrotation Yrotation Zrotation
								JOINT LeftShoulder_split
								{
									OFFSET 2.196100 4.412489 0.087492
									CHANNELS 3 Xrotation Yrotation Zrotation
									JOINT LeftArm
									{
										OFFSET 8.771219 -2.981674 -0.026999
										CHANNELS 3 Xrotation Yrotation Zrotation
										JOINT LeftForeArm
										{
											OFFSET 8.512804 0.000000 -0.000000
											CHANNELS 3 Xrotation Yrotation Zrotation
											JOINT LeftHand
											{
												OFFSET 18.484802 0.000000 -0.000000
												CHANNELS 3 Xrotation Yrotation Zrotation
												End Site
												{
													OFFSET 0 0 0
												}
											}
										}
									}
								}
							}
						}
						JOINT RightShoulder_virtual
						{
							OFFSET 0.000000 0.000000 0.000000
							CHANNELS 3 Xrotation Yrotation Zrotation
							JOINT RightShoulder
							{
								OFFSET -2.196100 4.412496 0.070690
								CHANNELS 3 Xrotation Yrotation Zrotation
								JOINT RightShoulder_split
								{
									OFFSET -2.196100 4.412496 0.070690
									CHANNELS 3 Xrotation Yrotation Zrotation
									JOINT RightArm
									{
										OFFSET -8.771282 -2.981682 -0.094208
										CHANNELS 3 Xrotation Yrotation Zrotation
										JOINT RightForeArm
										{
											OFFSET -8.494598 0.000000 0.000000
											CHANNELS 3 Xrotation Yrotation Zrotation
											JOINT RightHand
											{
												OFFSET -18.483803 0.000000 0.000001
												CHANNELS 3 Xrotation Yrotation Zrotation
												End Site
												{
													OFFSET 0 0 0
												}
											}
										}
									}
								}
							}
						}
					}
				}
			}
		}
	}
}
MOTION
Frames: 7
Frame Time: 0.03333333
-0.363656 15.603013 -7.881225 0.000000 0.000000 0.000000 70.038515 1.831960 -1.696316 5.665543 14.679291 12.369024 15.625820 8.561680 1.503061 -43.878529 4.344592 -8.274620 -30.949080 2.044129 -8.587745 0.000000 0.000000 0.000000 70.439871 -2.407178 -1.484901 4.078792 -5.851935 -12.610098 12.584359 4.025210 5.434912 -32.360070 3.944257 13.372935 -59.857367 -2.555129 6.299146 0.000000 0.000000 0.000000 74.132749 0.920179 -2.398570 -1.205990 1.448659 -1.094579 1.901775 0.232136 0.377709 0.496327 -1.006077 1.229268 0.000000 0.000000 0.000000 0.786363 -0.241766 0.148098 -10.138797 -0.562233 3.324143 8.864356 7.287395 -5.761376 0.000000 0.000000 0.000000 1.079667 -0.362872 0.766435 1.540890 -1.532502 2.379974 1.493987 0.891515 -2.049517 -39.679690 -56.342555 -47.972698 -0.290702 -19.642712 0.323279 0.000000 0.000000 0.000000 0.897914 -0.049480 1.047818 1.835383 2.483809 13.957215 2.792972 5.930274 -1.368579 -58.123933 57.121767 53.785937 -0.694924 20.811863 0.995134 0.000000 0.000000 0.000000 
-0.437097 15.620644 -7.883418 0.000000 0.000000 0.000000 69.909063 1.861027 -1.627611 5.758357 14.664700 12.345953 15.740371 8.635550 1.459761 -43.784955 4.298344 -8.469435 -31.088576 2.055880 -8.475297 0.000000 0.000000 0.000000 70.444898 -2.582689 -1.341739 3.824955 -5.663181 -12.674797 12.757580 4.133616 5.452979 -32.586447 3.811501 13.684844 -59.451674 -2.491449 6.279916 0.000000 0.000000 0.000000 74.285151 0.984124 -2.441482 -1.089676 1.487312 -1.121377 2.017078 0.216473 0.382281 0.538143 -1.254387 1.155128 0.000000 0.000000 0.000000 0.770450 -0.244740 0.197150 -10.418043 -0.620765 3.268459 8.903121 7.292868 -5.989647 0.000000 0.000000 0.000000 1.114946 -0.354170 0.766927 1.530968 -1.476061 2.443657 1.860933 1.152072 -1.550647 -40.176778 -56.320101 -48.347385 -0.168915 -19.277661 0.183337 0.000000 0.000000 0.000000 1.005731 -0.014915 1.094374 1.746006 2.685963 13.896425 2.907574 5.807523 -1.334947 -57.541216 56.357366 52.845802 -0.687434 20.952625 1.285002 0.000000 0.000000 0.000000 
-0.474717 15.653505 -7.902686 0.000000 0.000000 0.000000 69.722346 1.808892 -1.547829 5.872133 14.432757 12.312045 15.812301 8.842880 1.721329 -43.562602 4.292797 -8.766616 -31.678339 2.109850 -8.270364 0.000000 0.000000 0.000000 70.537488 -2.747614 -1.239026 3.424678 -5.597139 -12.566232 12.572500 4.011206 5.401286 -32.544810 3.576644 13.809101 -59.143933 -2.436592 6.278983 0.000000 0.000000 0.000000 74.405451 0.996843 -2.403719 -0.911728 1.486508 -1.199988 2.197742 0.224722 0.400696 0.603257 -1.508846 1.119551 0.000000 0.000000 0.000000 0.782279 -0.238221 0.266873 -10.483152 -0.631437 3.206299 8.850049 7.152043 -6.071541 0.000000 0.000000 0.000000 1.235797 -0.347048 0.772936 1.538855 -1.448798 2.810070 2.188680 1.470204 -1.084913 -40.478939 -56.667764 -48.764368 0.009528 -19.434485 0.079611 0.000000 0.000000 0.000000 1.194837 0.033246 1.156209 1.538638 3.268431 13.822101 3.095745 5.724468 -1.284870 -54.953854 54.966494 49.938365 -0.722961 22.832846 1.550111 0.000000 0.000000 0.000000 
-0.495230 15.685226 -7.940747 0.000000 0.000000 0.000000 69.528184 1.789195 -1.509948 5.973728 14.101487 12.179861 15.535795 9.261444 2.206912 -43.270351 4.378503 -8.885605 -32.028113 2.212873 -8.170963 0.000000 0.000000 0.000000 70.711453 -2.863959 -1.147637 2.978664 -5.673953 -12.296297 12.153296 3.718247 5.281369 -32.233459 3.247132 13.860447 -58.948426 -2.384181 6.281857 0.000000 0.000000 0.000000 74.415936 0.924292 -2.214296 -0.727275 1.436331 -1.321105 2.412371 0.238614 0.420070 0.630974 -1.687995 1.137361 0.000000 0.000000 0.000000 0.829923 -0.230814 0.354063 -10.348595 -0.585969 3.128527 8.614239 6.893086 -6.016302 0.000000 0.000000 0.000000 1.416621 -0.342502 0.790039 1.562483 -1.373861 3.506751 2.458748 1.689181 -0.757015 -40.678261 -57.200809 -49.237584 0.243635 -20.181908 0.015124 0.000000 0.000000 0.000000 1.425379 0.078857 1.227797 1.218324 4.272528 13.688561 3.252224 5.747191 -1.260186 -51.155900 53.066318 45.937342 -0.799550 25.981845 1.789059 0.000000 0.000000 0.000000 
-0.516388 15.725965 -7.991820 0.000000 0.000000 0.000000 69.388397 1.815140 -1.520598 6.124801 13.825531 11.970133 14.582338 9.941972 2.750809 -42.897608 4.469436 -8.664151 -31.858574 2.289995 -8.185002 0.000000 0.000000 0.000000 70.890486 -2.957713 -1.035831 2.493856 -5.879923 -11.951845 11.760290 3.385544 5.117550 -31.760164 2.869822 14.043204 -58.639619 -2.328170 6.291220 0.000000 0.000000 0.000000 74.327491 0.836408 -1.952841 -0.569494 1.339397 -1.462906 2.629550 0.241945 0.423806 0.637883 -1.970637 1.150573 0.000000 0.000000 0.000000 0.911771 -0.236946 0.451830 -10.029389 -0.484756 3.016859 8.197888 6.609586 -5.865867 0.000000 0.000000 0.000000 1.633060 -0.348219 0.808942 1.591757 -1.195183 4.482604 2.581372 1.706016 -0.623969 -40.714542 -57.625719 -49.575016 0.520000 -21.434267 -0.001139 0.000000 0.000000 0.000000 1.669002 0.104632 1.305983 0.785643 5.733786 13.418813 3.451433 5.773539 -1.295581 -47.009569 50.847439 41.668976 -0.937566 29.838269 2.000238 0.000000 0.000000 0.000000 
-0.548517 15.799215 -8.030145 0.000000 0.000000 0.000000 69.346378 1.814435 -1.527289 6.207263 13.591075 11.860538 13.071250 10.441527 3.204264 -41.894485 4.571861 -8.772307 -31.672817 2.279239 -8.012210 0.000000 0.000000 0.000000 70.996873 -3.093230 -0.901725 1.999779 -6.230655 -11.566154 11.536411 3.081070 4.968432 -31.242180 2.451420 14.466788 -58.037511 -2.267462 6.316930 0.000000 0.000000 0.000000 74.228461 0.755846 -1.697767 -0.468221 1.223730 -1.580137 2.831420 0.220555 0.399651 0.566763 -2.180542 1.121199 0.000000 0.000000 0.000000 1.021864 -0.260622 0.548548 -9.615894 -0.356989 2.867076 7.657352 6.317554 -5.651398 0.000000 0.000000 0.000000 1.870899 -0.364949 0.814192 1.618246 -0.943500 5.661102 2.570673 1.543836 -0.579601 -40.469759 -57.693515 -49.585585 0.831433 -23.102357 0.005298 0.000000 0.000000 0.000000 1.932956 0.110169 1.375233 0.272246 7.685234 13.005838 3.557445 5.689835 -1.363212 -43.103862 48.480181 37.714177 -1.118959 33.775825 2.195928 0.000000 0.000000 0.000000 
-0.603004 15.906182 -8.073972 0.000000 0.000000 0.000000 69.439658 1.699661 -1.516288 6.164982 13.494756 11.858355 11.317644 10.772289 3.570617 -40.485014 4.579947 -8.972288 -31.752600 2.096399 -7.473242 0.000000 0.000000 0.000000 71.035620 -3.375433 -0.758955 1.533068 -6.691585 -11.029545 11.350996 2.799893 4.766048 -30.848259 1.957902 15.125046 -57.212243 -2.223924 6.371343 0.000000 0.000000 0.000000 74.209746 0.654513 -1.495926 -0.425643 1.121441 -1.628965 3.031907 0.178185 0.343232 0.430108 -2.333880 1.048799 0.000000 0.000000 0.000000 1.169423 -0.301320 0.636352 -9.215919 -0.238062 2.695900 7.054265 6.044411 -5.404689 0.000000 0.000000 0.000000 2.146815 -0.390551 0.786837 1.640591 -0.720461 7.016775 2.567675 1.189028 -0.630447 -39.832461 -57.288266 -49.055184 1.111365 -25.063519 0.006149 0.000000 0.000000 0.000000 2.223306 0.108026 1.433561 -0.296370 10.074391 12.543930 3.560459 5.487909 -1.443538 -39.724612 46.045030 34.218421 -1.318149 37.287908 2.391423 0.000000 0.000000 0.000000 
